<svg xmlns="http://www.w3.org/2000/svg" width="1349" height="1348" fill="none" viewBox="0 0 1349 1348">
  <path fill="#4DD5FF" d="M596.552 1.71c-92.246 12.515-180.558 41.475-253.854 82.593-22.883 12.871-34.325 20.38-62.57 40.045-40.045 28.245-110.123 96.178-139.084 135.15-7.866 10.727-15.374 20.38-16.447 21.453-6.436 5.721-38.257 58.279-51.486 85.095C24.843 461.51 3.748 545.532.53 651.007c-1.788 63.642.715 97.609 11.084 153.028 5.363 29.676 26.1 102.257 30.748 107.977 1.43 1.788 3.933 7.509 5.363 12.514 7.509 25.028 43.978 94.034 69.006 130.504 80.089 116.56 200.939 208.8 333.944 254.93 46.481 16.44 115.129 31.82 156.604 35.04l26.815 2.14.358-56.49c.357-107.98 22.882-198.08 73.296-295.688 6.078-11.441 10.369-22.168 9.653-23.955-.715-1.788-15.374-13.587-33.251-26.458-17.52-12.872-35.397-26.101-39.33-28.961-11.441-8.939-22.525-6.078-46.48 11.441-12.514 9.654-26.101 19.665-30.391 22.525-4.291 2.861-22.525 16.09-40.402 29.319-36.112 26.457-55.777 35.037-81.162 35.037-40.045 0-72.939-20.021-92.246-56.49-17.52-32.894-16.447-47.91 11.799-133.363 26.815-81.52 28.246-92.603 12.871-102.257-24.313-15.017-110.123-79.017-121.206-90.1-18.95-18.593-27.174-40.76-27.174-70.079 0-41.832 19.665-73.296 58.637-92.961 17.52-8.938 18.95-8.938 103.33-8.938 94.391 0 94.033 0 98.681-22.168 1.431-6.435 3.933-13.944 5.721-17.162 1.43-2.86 11.084-31.463 21.453-63.285 20.379-64 29.676-80.089 55.419-97.251 39.687-26.101 93.318-21.095 127.285 12.514 18.592 18.235 22.167 26.816 53.273 122.279 12.157 38.257 20.738 59.352 25.028 61.497 3.576 2.146 42.548 3.576 86.883 3.576 91.531 0 107.262 3.218 131.575 26.816 21.096 20.737 31.466 45.05 31.466 74.726-.36 46.48-13.23 64-85.097 115.128-26.816 19.308-50.413 36.47-52.559 37.9-1.787 1.787-7.866 6.078-13.229 10.368-5.72 3.933-10.011 10.727-10.011 14.66 0 12.156 8.224 35.754 13.229 37.542 2.503 1.072 11.442-3.933 19.665-10.727 29.676-23.955 86.525-57.206 142.302-82.234 72.22-32.537 193.07-55.777 272.8-51.844l32.18 1.43-2.5-27.173c-3.22-41.117-17.88-106.19-34.68-154.816C1253 280.593 1126.43 140.437 959.457 61.063c-14.659-6.794-27.888-12.514-29.318-12.514-1.43 0-7.509-2.503-12.872-5.364-14.659-7.508-76.514-25.385-118.704-34.323C770.675 3.14 746.362 1.353 689.513.28c-40.402-.716-82.234 0-92.961 1.43Z"/>
  <path fill="#F8E075" d="M617.29 331.364c-3.576 1.788-6.436 5.363-6.436 7.866 0 10.726-45.408 141.944-54.346 156.604-10.369 17.519-32.894 35.396-52.559 41.832-7.866 2.86-41.833 4.29-95.106 4.29-75.799 0-83.308.716-88.671 6.436-15.016 16.447-9.653 22.168 74.011 82.235 65.788 47.195 77.587 62.57 80.09 104.402 1.43 24.313.715 27.531-37.184 141.944-10.369 31.106-11.442 37.9-7.866 43.978 9.296 14.659 21.81 9.654 86.525-37.184 79.016-56.85 80.089-57.565 112.983-57.565 32.179 0 41.475 4.291 98.324 45.408l39.33 28.603 7.15-8.581c3.933-5.005 13.587-16.446 21.453-25.743 7.866-9.296 14.659-18.234 15.374-19.664.358-1.431-5.005-20.38-12.156-41.833-19.665-59.709-17.52-93.676 8.223-125.497 6.794-8.223 31.822-29.318 55.777-46.48 89.028-63.285 92.961-67.933 77.586-83.308-6.793-6.793-11.798-7.151-88.67-7.151-97.251 0-106.905-2.145-134.793-30.033-19.665-19.665-20.38-21.81-51.844-120.134-8.581-26.458-17.519-51.844-20.38-56.492-5.005-8.223-16.447-10.011-26.815-3.933Z"/>
  <path fill="#4DD5FF" d="M1220.46 721.085c-52.56 6.793-122.63 28.603-178.41 56.134-193.073 94.391-323.934 301.051-323.934 510.931 0 18.23 1.073 33.25 2.861 33.25 3.218 0 601.383-598.17 601.383-601.745 0-3.218-70.43-2.503-101.9 1.43Z"/>
</svg>
